<?xml version="1.0" encoding="UTF-8" standalone="no"?>
<!-- Created with Inkscape (http://www.inkscape.org/) -->

<svg
   width="210mm"
   height="297mm"
   viewBox="0 0 210 297"
   version="1.1"
   id="svg454"
   inkscape:version="1.1.1 (3bf5ae0d25, 2021-09-20)"
   sodipodi:docname="WomWalk.svg"
   xmlns:inkscape="http://www.inkscape.org/namespaces/inkscape"
   xmlns:sodipodi="http://sodipodi.sourceforge.net/DTD/sodipodi-0.dtd"
   xmlns="http://www.w3.org/2000/svg"
   xmlns:svg="http://www.w3.org/2000/svg">
  <sodipodi:namedview
     id="namedview456"
     pagecolor="#ffffff"
     bordercolor="#666666"
     borderopacity="1.0"
     inkscape:pageshadow="2"
     inkscape:pageopacity="0.0"
     inkscape:pagecheckerboard="0"
     inkscape:document-units="mm"
     showgrid="false"
     inkscape:zoom="0.96102398"
     inkscape:cx="523.92033"
     inkscape:cy="305.40341"
     inkscape:window-width="1920"
     inkscape:window-height="1057"
     inkscape:window-x="-8"
     inkscape:window-y="-8"
     inkscape:window-maximized="1"
     inkscape:current-layer="layer1" />
  <defs
     id="defs451" />
  <g
     inkscape:label="Layer 1"
     inkscape:groupmode="layer"
     id="layer1">
    <path
       style="fill:#000000;stroke-width:0.12373"
       d="m 72.10299,245.53985 c -2.03475,-0.10171 -3.30211,-0.34501 -5.39556,-1.03581 -2.22031,-0.73266 -4.51441,-1.09679 -9.82324,-1.55918 -2.344105,-0.46051 -5.611006,-0.0928 -7.18236,-1.62077 -1.123696,-1.23188 -1.459878,-2.67187 -1.38237,-4.02773 0.0756,-1.26753 0.0419,-1.18484 1.50958,-3.69948 0.64375,-1.10296 1.0363,-1.87835 1.91053,-3.77377 2.179553,-4.50472 3.461426,-9.87255 4.82975,-13.79591 1.205613,-3.43701 1.934766,-6.98895 2.60065,-10.57892 0.440065,-2.22962 1.126867,-4.22534 1.49294,-6.24837 0.618301,-2.6888 1.873149,-5.28588 3.25113,-7.67126 1.341998,-3.05 4.2481,-5.82935 5.77622,-8.35505 0.886223,-1.46744 1.826323,-2.89952 2.74748,-4.32729 0.57373,-0.88933 1.45934,-2.56736 1.45934,-2.76511 0.998341,-2.1561 1.756027,-4.22095 2.2143,-6.39092 0.63245,-3.24596 1.425714,-6.78962 2.06598,-9.68187 0.569535,-1.56414 1.038972,-2.7353 1.40692,-4.24395 -0.01,-0.5242 -0.31866,-0.83527 -1.00093,-1.0072 -0.36577,-0.0922 -0.80424,-0.27059 -0.97437,-0.39653 -0.28817,-0.21328 -0.30889,-0.29982 -0.303,-1.26546 0.007,-1.14826 0.17003,-1.59456 0.85317,-2.33569 0.589515,-0.739 0.893365,-1.65737 1.41064,-2.40232 0.31171,-0.44406 0.51379,-0.87091 0.51379,-1.08525 0,-0.1943 0.10864,-0.75578 0.24143,-1.24772 0.280343,-1.02608 0.452668,-2.1248 0.68705,-3.12157 0.38131,-1.612 0.38549,-1.56303 -0.20533,-2.40424 -1.58567,-2.25764 -1.89794,-2.74697 -2.29528,-3.59667 -0.53168,-1.137 -0.89311,-3.03786 -0.89858,-4.72593 -0.0115,-3.53622 0.53854,-6.35574 1.90102,-9.74534 0.61906,-1.54012 0.63711,-1.68902 0.45053,-3.71705 -0.33777,-3.67146 -0.55907,-8.78162 -0.49564,-11.44504 0.0275,-1.15687 0.0343,-2.63235 0.015,-3.27884 -0.0941,-3.15293 -0.01,-5.959745 0.19651,-6.557695 0.0823,-0.23818 0.23015,-0.76712 0.32864,-1.17543 0.0985,-0.40831 0.40361,-1.61093 0.67802,-2.67248 0.35046,-1.35573 0.55768,-2.51557 0.69633,-3.897496 0.200277,-2.075722 0.535128,-4.232215 0.74915,-6.233824 l 0.17689,-1.668092 -0.42639,-1.239565 c -0.54527,-1.585125 -0.75686,-2.675718 -0.93664,-4.827738 -0.17943,-2.147738 -0.0875,-3.821966 0.39053,-7.11448 0.40303,-2.77577 0.52706,-3.293112 1.17447,-4.898659 0.853927,-2.153712 2.149155,-4.311497 3.35398,-6.114277 0.8957,-1.343401 2.70506,-3.392988 4.76332,-5.395739 1.280591,-1.124202 2.282536,-2.476398 3.34741,-3.785916 0.26181,-0.320854 0.66393,-1.044675 0.89358,-1.608491 0.51344,-1.260544 0.46218,-1.334445 -0.92563,-1.334445 -1.071161,-0.0439 -2.849972,-0.915244 -3.14981,-2.166584 -0.0458,-0.244256 -0.2244,-0.705795 -0.39685,-1.025643 -0.40027,-0.74241 -0.35108,-1.666963 0.14052,-2.641333 0.43175,-0.855744 1.30012,-3.028868 1.30012,-3.253595 -0.457083,-0.724513 -0.827269,-1.533077 -1.35946,-2.23318 -0.2981,-0.184234 -1.24574,-1.824368 -1.37099,-2.372851 -0.174053,-1.012123 -0.717236,-1.909055 -0.73237,-2.952227 0.002,-0.53501 0.26928,-1.837923 0.88458,-4.308342 0.4147,-1.665062 0.40145,-1.949193 -0.0952,-2.041883 -0.37026,-0.0691 -0.67921,-0.401994 -0.99291,-1.069865 -0.62664,-1.334131 -0.25263,-2.903649 0.92251,-3.871223 0.758253,-0.718715 1.920812,-0.870716 2.63489,-1.451033 l -0.25213,-0.555853 c -0.28709,-0.632939 -0.33912,-1.712518 -0.10289,-2.134973 0.27901,-0.498986 1.58589,-1.932169 1.98807,-2.180222 0.67644,-0.417199 2.81824,-1.081947 3.99843,-1.240984 1.15727,-0.155949 2.87633,-0.104333 3.4209,0.102713 0.57388,0.341955 0.87257,0.912494 1.42564,1.247573 0.32148,0 1.67088,0.511651 2.04702,0.776165 0.31586,0.222118 0.52912,0.2454 2.05636,0.224502 1.85929,-0.02544 3.03151,0.19277 5.13878,0.956593 2.38912,0.865985 2.91643,1.26922 3.63862,2.782419 0.3739,0.783452 0.40782,0.816946 0.7565,0.74721 0.83169,-0.166338 2.60138,0.56544 3.44835,1.425915 0.41793,0.424598 0.70034,0.892264 1.05768,1.751503 0.62803,1.912588 0.82474,3.357837 0.38016,5.330928 -0.11643,0.502832 -0.2239,1.303991 -0.23882,1.780351 -0.0346,1.104527 -0.24304,1.502594 -1.36063,2.598332 -1.33167,1.305635 -1.56229,2.010366 -1.06813,3.264052 0.22546,0.572001 0.42222,0.859116 1.77786,2.594339 0.68346,0.874824 1.06923,1.516107 1.07173,1.781586 0.006,0.613967 -1.56492,1.725148 -2.68341,1.89836 -0.77009,0.119257 -0.96453,0.404444 -0.96493,1.415261 -2.5e-4,0.703773 -0.0464,0.892407 -0.2784,1.139383 -0.15293,0.162788 -0.27805,0.445344 -0.27805,0.627904 0,0.208174 -0.16843,0.518361 -0.45177,0.831976 -0.43471,0.481173 -0.45577,0.547476 -0.558,1.756454 -0.13663,1.615849 -0.19193,1.889318 -1.20218,2.493161 -1.01025,0.603843 -5.46244,-0.144554 -6.15374,0.724179 -0.23284,0.296 -0.73548,1.739445 -1.28249,3.6829 -0.14365,0.510386 -0.36617,1.289886 -0.49449,1.732221 -0.31625,1.118856 -0.28859,2.20549 -0.44875,3.35108 -0.0546,0.377547 0.003,0.523482 0.38606,0.982319 0.73683,1.012274 1.3594,2.188641 2.00149,3.12399 0.99568,1.44494 2.15722,3.618862 2.46117,4.606295 0.37259,1.36797 0.62796,2.730037 1.02281,4.083093 0.53768,1.828403 0.88908,3.103163 1.1426,4.144958 0.72913,2.996282 1.30712,4.6709 1.98208,5.742739 1.32547,2.104847 1.40961,2.301206 1.40961,3.289557 -0.4283,2.2934 -2.05334,3.719276 -3.74025,4.882286 l 0.0487,1.67288 c 0.21152,2.688292 0.28273,4.897273 0.22925,7.509486 l 0.35425,0.53532 c 0.4589,0.69345 2.34757,2.731235 4.42812,4.777755 4.64265,4.59323 10.20947,9.78143 14.44775,12.95713 0.95586,0.88322 2.80404,2.29786 3.94368,3.01863 0.84997,0.53757 1.03736,0.63391 4.11309,2.11453 1.76234,0.84837 1.81608,0.88606 2.52637,1.77137 0.69468,0.77787 1.06561,1.81887 1.57689,2.64324 1.91237,3.05997 2.07756,3.53742 1.62674,4.70174 -0.37591,0.90021 -0.24299,1.98508 -0.78856,2.79259 -0.85219,1.21676 -1.55292,2.06945 -1.95859,2.38331 -0.41314,0.31965 -0.51414,0.34371 -1.14957,0.27393 -0.60997,-0.067 -0.74082,-0.0407 -1.0517,0.21117 -0.79781,0.6464 -1.29934,0.71668 -2.33882,0.32776 -0.38164,-0.14277 -0.7874,-0.22998 -0.9017,-0.1938 -0.11429,0.0362 -0.45124,0.1551 -0.74879,0.26421 -0.68633,0.25171 -1.13768,0.12226 -2.20483,-0.63234 -0.58483,-0.44511 -1.44531,-0.74058 -1.77033,-1.37093 0.29959,-0.74784 1.0232,-0.72802 1.45393,-0.69263 0.78164,0.0655 0.91075,0.0417 1.43467,-0.26539 0.31665,-0.18557 0.60488,-0.38457 0.6405,-0.44221 0.0356,-0.0576 -0.006,-0.34314 -0.0927,-0.63445 -0.17918,-0.60243 -1.56656,-2.16049 -2.38467,-2.67799 -1.46955,-0.9296 -2.76327,-2.68398 -3.02847,-4.10684 -0.0824,-0.44233 -0.2084,-0.87533 -0.27991,-0.96222 -5.05216,-3.42172 -10.69916,-6.70969 -14.73112,-9.77015 -0.28601,-0.22051 -0.5856,-0.40147 -0.66577,-0.40212 -0.0865,-7.5e-4 -0.17624,0.28804 -0.22074,0.71024 -0.4556,3.22965 -1.05567,6.49156 -1.55008,9.74374 -0.19123,1.26125 -0.98019,4.37476 -1.25217,4.9415 -0.29614,0.6171 -0.29659,1.03633 -0.001,1.36075 0.12781,0.1405 0.96281,1.6976 1.85556,3.46024 1.39714,2.44934 3.11517,5.37924 4.09753,7.49785 1.75299,3.35116 2.9961,6.87962 4.73541,10.23663 0.84302,1.82371 1.31913,3.20261 1.93855,5.22964 0.97455,3.17151 1.8983,5.77344 2.62176,8.72297 0.54112,2.21365 0.80012,2.65414 2.24233,4.62356 0.90363,1.26111 1.71869,2.4152 2.36136,3.72822 0.89426,1.83847 1.14767,3.63014 0.75253,5.32039 -0.63289,2.63822 -0.80287,4.79497 -0.80929,6.43397 -0.005,2.11029 0.0318,2.75028 0.18014,3.09601 1.04164,5.26411 2.91544,10.23777 3.92142,15.48154 0.71742,3.9005 1.18627,7.70626 2.10531,11.37878 1.06992,3.25898 2.17436,6.51034 3.97898,9.50446 0.68047,1.57235 1.71785,2.67316 2.69789,3.84474 0.59651,0.71454 1.35565,1.5269 1.68696,1.80522 2.17482,1.56933 5.04354,1.94287 7.03635,2.83664 2.83013,1.27506 4.12802,1.66837 5.50545,1.66837 0.84373,0 1.10972,-0.0616 2.16989,-0.50287 0.95496,-0.39744 1.5222,-0.54381 2.70552,-0.69809 2.04845,-0.26709 2.53965,-0.24051 2.8892,0.15633 0.52312,0.83212 0.24947,1.84111 -0.24746,2.30506 -0.28922,0.26891 -1.02696,0.97982 -1.63943,1.57978 -0.77179,0.69301 -1.79771,1.58633 -2.74625,1.79605 -0.40061,0.0752 -0.92108,0.4236 -2.23979,1.49949 -0.56427,0.46038 -1.67643,1.02143 -2.30313,1.16189 -0.28787,0.0645 -2.55171,0.12389 -5.03076,0.13193 -5.5157,0.0179 -6.71219,0.13828 -8.62039,0.86703 -3.28406,1.25423 -4.45411,1.52471 -6.30583,1.45786 -2.28408,-0.22233 -4.33106,-1.30678 -4.96237,-3.23029 -0.23933,-0.7409 -0.27062,-1.10876 -0.27062,-3.1812 0,-1.28889 -0.0603,-2.91631 -0.13397,-3.61651 -0.11542,-1.09688 -0.62123,-3.21624 -0.97707,-4.09391 -1.76234,-5.31631 -3.78654,-9.27528 -6.06507,-13.98061 -8.7e-4,-0.35827 -2.33602,-4.84896 -3.3744,-6.48926 -1.21499,-1.95063 -1.77822,-3.75666 -2.43101,-5.70603 -1.08733,-3.17327 -1.40628,-6.53915 -1.80105,-9.73078 -0.2247,-1.80651 -0.35858,-7.11365 -0.20012,-7.93313 0.10066,-0.52062 0.0797,-0.77334 -0.11778,-1.4229 -0.26187,-1.60167 -0.84998,-3.09448 -1.10277,-4.71242 -0.22356,-1.48679 -1.32937,-3.25446 -3.57289,-5.71137 -2.51167,-2.75056 -4.85162,-5.94606 -6.9436,-9.48235 -0.94605,-1.59921 -1.97624,-3.26957 -2.28932,-3.7119 -0.31308,-0.44234 -0.88786,-1.38412 -1.27729,-2.09286 -0.38943,-0.70874 -0.76264,-1.29336 -0.82937,-1.29916 -0.48497,0.49769 -0.76829,1.18479 -1.15546,1.78353 -1.723652,2.95395 -2.494051,4.83661 -4.41838,7.86892 -1.150068,2.07776 -2.358085,4.06519 -3.54676,6.00358 -1.115955,2.22938 -2.145414,4.36559 -3.05474,6.72856 -0.857,2.24836 -1.33373,2.99307 -2.73263,4.26869 -0.5597,0.51038 -1.41001,1.3077 -1.88956,1.7718 -0.47956,0.4641 -1.38054,1.24873 -2.00218,1.74363 -1.22033,0.97151 -1.55299,1.33091 -2.08904,2.25696 -0.803696,1.25391 -1.495023,2.65735 -2.14654,3.94042 -0.946911,1.80708 -1.497957,3.95783 -2.36193,5.68975 -0.871821,2.04867 -1.896539,4.13918 -2.85569,6.01238 -1.307983,2.50991 -2.784862,5.32629 -3.79806,7.47603 -1.568156,3.03486 -2.684822,6.12678 -3.83339,9.06908 -0.480142,1.09525 -0.424339,2.43326 -0.77034,3.54564 -0.15842,0.50045 -0.17932,0.96955 -0.11389,2.55672 0.0731,1.77271 0.11442,2.03463 0.46958,2.97528 0.44631,1.18204 0.92894,1.72854 2.21289,2.50574 1.67237,1.01231 4.17629,2.7417 5.05484,3.49124 0.96456,0.82293 2.30067,1.67396 3.07634,1.95947 0.25527,0.094 0.9374,0.37325 1.51584,0.62066 2.68581,1.14875 3.74187,1.429 5.72663,1.51967 1.24651,0.057 1.35834,0.0835 1.70129,0.40385 0.659397,0.67312 0.257967,1.61524 -0.30748,1.97218 -0.87204,0.53894 -2.54353,0.79421 -3.93655,0.60116 -0.58318,-0.0808 -1.20233,-0.0779 -1.87287,0.009 -1.48664,0.19225 -4.20766,0.25097 -6.44582,0.13909 z"
       id="path524"
       sodipodi:nodetypes="cscccscccccccccccsssccsccsscsscscsscccsscccccsccssccccsssccssssccssssssccsssscscsssszcsccccccssccccsccssccccsssssscccsscsccccccscccccccccccccccccsssccccssssccsscccccsccsssscccccssscccccccsssssscccsccc" />
  </g>
</svg>
