<?xml version="1.0" standalone="no"?>
<!DOCTYPE svg PUBLIC "-//W3C//DTD SVG 20010904//EN"
 "http://www.w3.org/TR/2001/REC-SVG-20010904/DTD/svg10.dtd">
<svg version="1.0" xmlns="http://www.w3.org/2000/svg"
 width="271.000000pt" height="166.000000pt" viewBox="0 0 271.000000 166.000000"
 preserveAspectRatio="xMidYMid meet">

<g transform="translate(0.000000,166.000000) scale(0.100000,-0.100000)"
fill="#000000" stroke="none">
<path d="M713 1084 c-41 -21 -103 -73 -103 -88 0 -7 11 -29 24 -49 14 -20 26
-48 28 -64 2 -15 8 -27 14 -26 6 1 24 -11 39 -27 33 -34 42 -36 66 -15 22 21
66 10 75 -18 9 -27 8 -284 0 -325 -4 -16 0 -80 9 -142 9 -61 15 -113 13 -115
-2 -2 -29 3 -60 12 -59 17 -91 13 -82 -10 3 -9 -10 -20 -36 -32 -55 -25 -52
-40 8 -30 50 9 100 10 170 4 30 -2 46 1 53 11 8 13 10 13 18 1 8 -12 11 -10
19 10 21 54 45 211 39 260 -6 52 -22 83 -38 73 -5 -3 -9 -1 -9 5 0 30 53 11
105 -39 17 -15 50 -38 75 -50 25 -12 77 -54 115 -93 68 -69 76 -74 207 -126
121 -48 141 -53 179 -46 24 4 109 9 189 11 80 1 168 5 195 8 55 6 195 -14 238
-34 15 -7 30 -11 33 -8 10 11 -50 91 -78 102 -15 7 -38 27 -51 46 -18 27 -30
35 -50 33 -19 -1 -27 3 -27 14 0 13 -7 10 -29 -11 -35 -34 -55 -33 -189 10
-95 29 -144 28 -202 -7 l-34 -21 -16 23 c-30 48 -108 122 -129 124 -13 1 -28
14 -40 36 -21 41 -72 69 -124 69 -72 0 -101 23 -148 116 -34 69 -53 95 -106
139 -35 30 -76 58 -91 61 -15 4 -45 20 -68 36 -34 24 -40 33 -36 57 8 57 -48
123 -108 127 -15 1 -41 -5 -57 -12z m252 -774 c-4 -23 -9 -39 -11 -37 -3 2 -2
23 2 46 4 23 9 40 11 37 3 -3 2 -23 -2 -46z m1115 -21 c-7 -11 -14 -19 -16
-16 -7 7 7 37 17 37 6 0 5 -9 -1 -21z m-65 -12 c11 -3 0 -3 -25 -1 -24 2 -48
8 -54 14 -6 6 3 6 25 0 19 -5 43 -11 54 -13z m-1068 -69 c-2 -13 -4 -5 -4 17
-1 22 1 32 4 23 2 -10 2 -28 0 -40z"/>
</g>
</svg>
