<?xml version="1.0" standalone="no"?>
<!DOCTYPE svg PUBLIC "-//W3C//DTD SVG 20010904//EN"
 "http://www.w3.org/TR/2001/REC-SVG-20010904/DTD/svg10.dtd">
<svg version="1.0" xmlns="http://www.w3.org/2000/svg"
 width="204.000000pt" height="143.000000pt" viewBox="0 0 204.000000 143.000000"
 preserveAspectRatio="xMidYMid meet">

<g transform="translate(0.000000,143.000000) scale(0.100000,-0.100000)"
fill="#000000" stroke="none">
<path d="M1690 570 c-14 -27 -91 -59 -175 -74 -71 -13 -109 -29 -157 -67 -22
-18 -39 -21 -96 -20 -40 1 -89 -5 -114 -13 -38 -14 -47 -14 -89 1 -46 17 -49
16 -127 -10 -91 -31 -143 -34 -197 -11 -58 24 -162 29 -215 10 -85 -30 -148
-17 -219 46 -53 46 -95 50 -134 14 -44 -41 -79 -136 -60 -161 13 -16 73 -45
93 -45 11 0 24 -9 30 -21 9 -16 14 -18 26 -8 8 6 37 12 65 12 42 0 52 3 56 18
7 26 22 24 32 -4 14 -36 80 -75 146 -86 33 -6 77 -13 97 -17 21 -4 51 -1 70 6
18 6 64 15 102 20 38 4 72 13 76 19 4 8 14 9 31 3 13 -5 53 -13 89 -16 36 -4
88 -14 116 -22 28 -7 71 -12 95 -10 24 2 52 4 62 5 28 2 20 21 -15 37 l-33 15
35 -6 c89 -16 110 -17 152 -2 24 9 116 20 209 27 159 11 170 11 238 -10 39
-11 71 -25 71 -30 0 -6 7 -10 15 -10 36 0 -5 66 -59 95 -20 11 -36 27 -36 36
0 8 -10 25 -23 37 l-23 22 -41 -21 c-39 -19 -44 -19 -101 -5 -75 20 -198 20
-232 1 -14 -8 -36 -14 -50 -14 -21 1 -19 3 10 12 19 5 50 21 67 34 32 23 122
61 213 89 57 18 124 17 175 -1 49 -18 45 -18 45 -2 0 17 -46 60 -85 80 -16 8
-41 27 -54 41 -29 31 -66 34 -81 6z m-961 -244 c-2 -2 -40 -6 -84 -8 -45 -3
-67 -2 -50 2 30 8 142 13 134 6z m440 -112 c14 -12 -19 -1 -35 12 -18 14 -18
14 6 3 14 -6 27 -13 29 -15z m-509 -8 c0 -2 -16 -6 -35 -8 -19 -2 -35 0 -35 4
0 4 16 8 35 8 19 0 35 -2 35 -4z m133 -3 c-7 -2 -21 -2 -30 0 -10 3 -4 5 12 5
17 0 24 -2 18 -5z"/>
</g>
</svg>
