<?xml version="1.0" standalone="no"?>
<!DOCTYPE svg PUBLIC "-//W3C//DTD SVG 20010904//EN"
 "http://www.w3.org/TR/2001/REC-SVG-20010904/DTD/svg10.dtd">
<svg version="1.0" xmlns="http://www.w3.org/2000/svg"
 width="230.000000pt" height="142.000000pt" viewBox="0 0 230.000000 142.000000"
 preserveAspectRatio="xMidYMid meet">

<g transform="translate(0.000000,142.000000) scale(0.100000,-0.100000)"
fill="#000000" stroke="none">
<path d="M385 646 c-17 -7 -45 -30 -63 -50 -58 -66 -36 -165 41 -181 21 -5 60
-34 112 -84 70 -67 89 -79 153 -99 68 -22 86 -23 280 -21 114 2 212 0 219 -4
23 -14 108 -9 148 8 l40 18 -35 7 c-32 7 -33 7 -7 9 15 0 40 -5 55 -13 36 -18
98 -29 123 -21 17 6 20 13 15 36 -5 26 -4 28 18 19 15 -5 37 -5 59 2 30 9 47
7 100 -10 75 -26 140 -28 235 -6 64 14 75 14 132 0 34 -9 66 -14 70 -11 5 3
12 20 15 38 4 17 15 41 25 52 18 19 39 89 40 128 0 29 -35 19 -62 -18 -44 -63
-84 -85 -147 -84 -31 1 -46 4 -33 6 13 3 22 12 22 22 0 10 11 28 25 41 14 13
25 29 25 35 0 6 9 28 20 50 24 47 24 45 2 45 -10 0 -34 -16 -53 -36 -59 -62
-77 -67 -208 -59 -64 3 -130 11 -147 16 -52 16 -276 -6 -364 -36 -70 -24 -83
-25 -195 -19 -82 4 -134 12 -165 25 -48 20 -76 24 -152 21 -36 -2 -57 -10 -93
-37 -33 -25 -52 -34 -67 -30 -19 7 -19 7 3 31 22 24 22 26 6 53 -9 16 -17 39
-17 50 0 15 -6 21 -21 21 -12 0 -39 20 -66 50 -25 28 -48 50 -51 50 -4 -1 -21
-7 -37 -14z m950 -231 c-33 -8 -73 -14 -90 -13 -41 0 68 25 115 26 27 0 21 -3
-25 -13z m212 8 c-20 -2 -52 -2 -70 0 -17 2 0 4 38 4 39 0 53 -2 32 -4z m99
-9 c19 -15 19 -15 -1 -6 -11 5 -27 12 -35 15 -13 5 -13 6 1 6 8 1 24 -6 35
-15z m214 -34 c21 -5 -1 -6 -55 -3 -49 3 -99 9 -110 13 -26 10 119 0 165 -10z
m-895 -20 c28 -10 43 -19 35 -19 -8 0 -40 8 -70 19 -30 11 -46 19 -35 19 11 0
43 -9 70 -19z m148 -7 c-7 -2 -19 -2 -25 0 -7 3 -2 5 12 5 14 0 19 -2 13 -5z
m140 -20 c-7 -2 -21 -2 -30 0 -10 3 -4 5 12 5 17 0 24 -2 18 -5z m-480 -60
c-7 -2 -19 -2 -25 0 -7 3 -2 5 12 5 14 0 19 -2 13 -5z m104 -19 c-3 -3 -12 -4
-19 -1 -8 3 -5 6 6 6 11 1 17 -2 13 -5z m136 -1 c-18 -2 -48 -2 -65 0 -18 2
-4 4 32 4 36 0 50 -2 33 -4z m150 -20 c-13 -2 -33 -2 -45 0 -13 2 -3 4 22 4
25 0 35 -2 23 -4z"/>
</g>
</svg>
