<?xml version="1.0" standalone="no"?>
<!DOCTYPE svg PUBLIC "-//W3C//DTD SVG 20010904//EN"
 "http://www.w3.org/TR/2001/REC-SVG-20010904/DTD/svg10.dtd">
<svg version="1.0" xmlns="http://www.w3.org/2000/svg"
 width="142.000000pt" height="246.000000pt" viewBox="0 0 142.000000 246.000000"
 preserveAspectRatio="xMidYMid meet">

<g transform="translate(0.000000,246.000000) scale(0.100000,-0.100000)"
fill="#000000" stroke="none">
<path d="M5 1545 c0 -506 1 -714 2 -463 2 251 2 665 0 920 -1 255 -2 49 -2
-457z"/>
<path d="M545 2075 c-16 -9 -38 -25 -47 -36 -24 -29 -23 -95 2 -144 28 -54 16
-77 -70 -148 -39 -32 -70 -62 -70 -68 0 -7 -15 -37 -32 -68 -40 -68 -79 -162
-72 -172 2 -4 32 -28 65 -53 61 -46 95 -56 117 -34 22 22 13 -9 -12 -39 -50
-60 -60 -118 -30 -162 14 -19 15 -37 10 -98 -4 -42 -2 -107 4 -151 12 -84 9
-100 -35 -161 -30 -41 -34 -119 -10 -197 19 -62 18 -108 -1 -159 -9 -22 -18
-52 -21 -68 -5 -24 -2 -28 26 -33 20 -4 38 -18 52 -40 13 -22 32 -37 57 -44
79 -22 101 -2 54 48 -45 48 -62 93 -62 164 0 84 24 207 53 271 13 29 27 76 31
106 7 50 40 207 52 240 4 12 7 12 17 -1 6 -9 44 -21 82 -28 39 -7 85 -19 103
-26 l34 -14 -32 -26 c-50 -43 -69 -93 -89 -234 -15 -115 -21 -133 -44 -158
-34 -35 -34 -47 1 -69 15 -9 38 -29 52 -44 22 -24 94 -59 120 -59 16 0 11 32
-8 54 -10 12 -27 47 -37 78 l-19 58 23 72 c31 97 53 139 118 226 32 42 57 87
60 107 5 33 1 39 -73 113 -65 63 -98 87 -179 127 -109 53 -124 64 -118 82 3 7
-7 28 -21 46 -34 44 -34 58 0 17 25 -29 30 -30 73 -25 79 11 155 36 189 62 19
14 57 31 85 39 70 18 91 40 76 82 -6 18 -17 32 -24 32 -7 0 -15 5 -17 11 -7
20 -51 -1 -89 -42 -38 -41 -96 -60 -156 -52 l-29 5 10 55 c7 40 6 60 -2 74 -7
10 -12 33 -12 51 0 25 -10 41 -45 73 -39 37 -43 45 -36 71 6 22 13 28 29 26
16 -2 25 5 37 34 8 20 23 42 32 49 10 7 13 17 8 25 -5 7 -7 42 -6 77 2 59 1
64 -23 73 -51 19 -120 22 -151 5z m-80 -646 c10 -29 -17 -23 -49 10 l-29 30
24 29 24 29 12 -40 c7 -22 15 -48 18 -58z"/>
<path d="M4 505 c0 -66 1 -92 3 -57 2 34 2 88 0 120 -2 31 -3 3 -3 -63z"/>
<path d="M2 315 c0 -16 2 -22 5 -12 2 9 2 23 0 30 -3 6 -5 -1 -5 -18z"/>
<path d="M2 250 c0 -19 2 -27 5 -17 2 9 2 25 0 35 -3 9 -5 1 -5 -18z"/>
<path d="M2 185 c0 -16 2 -22 5 -12 2 9 2 23 0 30 -3 6 -5 -1 -5 -18z"/>
<path d="M3 90 c0 -30 2 -43 4 -28 2 16 2 40 0 55 -2 16 -4 3 -4 -27z"/>
</g>
</svg>
