<?xml version="1.0" standalone="no"?>
<!DOCTYPE svg PUBLIC "-//W3C//DTD SVG 20010904//EN"
 "http://www.w3.org/TR/2001/REC-SVG-20010904/DTD/svg10.dtd">
<svg version="1.0" xmlns="http://www.w3.org/2000/svg"
 width="806.000000pt" height="280.000000pt" viewBox="0 0 806.000000 280.000000"
 preserveAspectRatio="xMidYMid meet">

<g transform="translate(0.000000,280.000000) scale(0.100000,-0.100000)"
fill="#000000" stroke="none">
<path d="M817 2303 c-2 -5 -7 -21 -11 -38 -4 -16 -12 -32 -17 -36 -10 -6 11
-111 29 -145 5 -11 9 -76 8 -149 -1 -107 -4 -136 -19 -158 -10 -15 -25 -58
-34 -95 -10 -41 -24 -74 -37 -84 -28 -24 -32 -23 -46 11 -11 26 -9 35 16 79
19 34 25 55 19 68 -9 21 -11 30 -13 56 -3 28 -43 58 -78 58 -43 0 -68 -28 -90
-97 -17 -52 -16 -55 3 -81 26 -36 34 -69 23 -98 -19 -48 -58 -14 -80 67 -7 24
-23 63 -37 87 -24 41 -25 45 -13 108 8 39 10 96 7 137 -5 57 -3 75 10 89 8 9
19 37 24 60 4 24 11 51 15 62 6 15 4 17 -14 12 -19 -6 -21 -2 -24 35 -3 49
-28 67 -28 21 0 -16 -9 -55 -20 -87 -11 -32 -20 -70 -20 -84 0 -14 -9 -72 -20
-129 -24 -123 -25 -178 -4 -297 9 -49 20 -110 24 -135 4 -25 12 -58 18 -75 6
-16 13 -54 17 -83 3 -30 14 -73 23 -95 28 -69 22 -160 -16 -240 -53 -113 -65
-170 -64 -292 1 -107 0 -111 -33 -171 -42 -75 -58 -171 -49 -294 6 -83 6 -86
-21 -118 -15 -17 -33 -32 -41 -32 -28 0 -15 -30 14 -31 15 0 42 -2 60 -4 24
-2 35 2 38 14 3 9 10 24 15 33 5 10 9 32 9 49 0 16 16 65 36 107 30 64 37 91
42 162 4 75 8 89 33 117 15 18 31 49 35 70 4 20 19 64 34 97 15 34 30 85 34
114 4 29 12 65 17 80 l11 27 10 -25 c5 -14 14 -47 20 -75 6 -27 26 -84 44
-127 19 -42 34 -87 34 -100 0 -13 12 -48 26 -77 19 -38 25 -61 20 -83 -7 -37
7 -95 39 -163 13 -27 27 -74 31 -102 3 -29 13 -58 20 -64 8 -6 14 -20 14 -30
0 -17 8 -19 70 -19 80 0 94 17 37 43 -54 26 -61 53 -62 223 l0 150 -34 64
c-29 57 -33 72 -30 130 7 180 6 190 -34 277 -52 113 -65 179 -48 241 8 26 17
72 20 102 4 30 21 91 38 135 18 44 38 107 46 140 8 33 26 98 40 144 l26 84
-20 121 c-11 67 -31 157 -44 202 -14 44 -25 92 -25 107 0 25 -15 45 -23 30z"/>
<path d="M4031 2251 c-6 -11 -11 -29 -11 -40 0 -10 -5 -21 -11 -23 -14 -5 8
-83 33 -118 16 -23 17 -34 8 -97 -5 -40 -7 -91 -4 -115 5 -38 3 -44 -18 -53
-32 -14 -36 -70 -9 -124 29 -55 23 -156 -8 -156 -38 0 -55 -138 -26 -209 28
-66 13 -133 -55 -256 -24 -42 -25 -69 -5 -117 8 -19 15 -61 15 -92 0 -31 8
-93 17 -138 l17 -83 -38 -78 c-46 -93 -47 -124 -11 -232 19 -56 25 -93 22
-118 -14 -94 -18 -86 48 -94 33 -3 88 -9 123 -13 84 -10 85 17 1 44 -68 22
-81 47 -85 158 -4 111 2 106 11 -9 7 -77 7 -78 35 -78 15 0 46 -7 69 -15 40
-14 96 -11 106 5 7 11 -14 26 -57 39 -21 7 -49 26 -63 42 -22 27 -25 39 -25
111 0 47 8 112 19 157 37 143 45 238 32 357 -12 100 -11 115 7 179 11 39 29
88 41 110 30 57 38 152 17 193 -9 17 -16 39 -16 49 0 9 -17 42 -38 73 -29 42
-37 61 -32 80 5 21 7 22 13 8 10 -28 35 -21 42 11 3 16 13 35 20 41 12 10 12
16 3 34 -7 11 -12 44 -13 72 0 28 -6 58 -14 67 -7 9 -15 40 -17 68 -3 29 -11
84 -19 123 -8 39 -15 104 -15 145 0 60 -3 72 -15 67 -8 -3 -20 3 -27 13 -21
29 -55 35 -67 12z m86 -183 c-3 -8 -6 -5 -6 6 -1 11 2 17 5 13 3 -3 4 -12 1
-19z m26 -98 c4 -22 3 -30 -2 -20 -5 8 -12 33 -15 55 -8 49 8 18 17 -35z m4
-257 c-3 -10 -5 -4 -5 12 0 17 2 24 5 18 2 -7 2 -21 0 -30z m-84 -1213 c-3
-12 -8 -19 -11 -16 -5 6 5 36 12 36 2 0 2 -9 -1 -20z m-16 -62 c-3 -8 -6 -5
-6 6 -1 11 2 17 5 13 3 -3 4 -12 1 -19z"/>
<path d="M5266 2243 c-3 -10 -4 -38 -2 -62 2 -36 9 -50 39 -77 42 -39 68 -87
102 -186 13 -39 28 -75 34 -81 6 -6 5 -15 -5 -24 -8 -8 -14 -24 -14 -36 0 -28
26 -67 45 -67 8 0 23 -19 33 -41 15 -33 17 -48 10 -73 -18 -59 5 -132 66 -209
78 -97 83 -158 21 -257 -38 -61 -48 -105 -34 -147 7 -21 13 -74 14 -118 1 -44
5 -108 10 -142 7 -58 6 -65 -29 -135 -45 -92 -53 -145 -32 -227 19 -74 20
-142 4 -188 -19 -52 -15 -53 159 -79 53 -8 94 1 87 20 -3 8 -30 24 -60 36 -52
22 -74 43 -74 72 0 9 3 10 8 2 4 -7 45 -15 90 -19 77 -7 84 -6 80 10 -1 10
-17 23 -35 29 -58 20 -68 38 -68 124 1 53 9 105 27 167 36 123 63 342 54 450
-5 68 -3 93 10 123 11 23 18 73 20 137 2 55 6 114 9 131 7 38 -27 134 -58 169
-12 13 -44 33 -72 42 -58 21 -71 52 -35 81 19 15 20 21 9 47 -6 17 -11 40 -11
52 1 13 -7 27 -18 33 -11 6 -20 21 -20 33 0 12 -14 37 -30 55 -25 27 -34 31
-49 22 -25 -13 -28 -13 -34 4 -4 10 0 12 14 9 10 -3 19 -1 19 4 0 5 -28 52
-63 104 -35 52 -67 107 -71 124 -4 16 -21 46 -38 67 -25 32 -36 38 -68 38 -28
0 -40 -5 -44 -17z m358 -603 c5 -20 3 -19 -8 5 -7 17 -16 41 -20 55 -5 20 -3
19 8 -5 7 -16 16 -41 20 -55z m130 -868 c-9 -31 -23 -84 -30 -117 l-14 -60 6
54 c3 29 11 72 19 95 8 22 17 61 22 86 5 29 9 37 11 22 2 -12 -4 -48 -14 -80z
m-112 -480 c2 -28 0 -52 -4 -52 -5 0 -7 33 -7 73 2 76 6 68 11 -21z"/>
<path d="M1964 1241 c-48 -22 -88 -70 -103 -125 -12 -46 -6 -82 26 -155 12
-29 23 -68 23 -85 0 -49 27 -145 62 -215 30 -62 31 -67 18 -110 -29 -101 -26
-127 30 -236 47 -92 51 -105 48 -160 l-3 -60 40 2 c22 1 72 2 112 2 40 0 74 5
78 11 7 11 -12 41 -23 38 -26 -7 -124 64 -105 75 4 3 32 0 62 -6 48 -10 54
-10 67 8 13 18 12 22 -13 40 -66 48 -74 59 -91 135 -16 72 -19 128 -12 235 4
63 -15 244 -33 310 l-14 51 53 -11 c63 -12 109 -52 155 -131 16 -29 47 -68 70
-88 39 -36 59 -39 59 -11 0 8 4 17 10 20 11 7 4 -13 -24 -75 l-17 -35 6 33 c4
17 2 32 -3 32 -14 0 -30 -43 -48 -132 -9 -46 -22 -102 -30 -126 -8 -23 -14
-71 -14 -106 0 -48 -6 -74 -24 -107 -13 -24 -27 -55 -31 -69 -7 -22 -6 -23 8
-12 12 10 15 10 14 0 -2 -24 15 -88 23 -88 11 0 68 102 76 137 4 15 20 60 36
100 18 45 28 90 28 122 0 37 7 63 29 99 15 26 33 64 40 83 6 19 25 51 41 70
l30 34 -17 -35 c-9 -19 -23 -48 -30 -63 -14 -26 -13 -29 16 -56 17 -16 31 -34
31 -40 0 -6 11 -11 25 -11 15 0 25 -6 25 -14 0 -8 18 -21 40 -30 22 -9 40 -20
40 -26 0 -19 26 -10 52 18 35 37 58 85 58 121 0 54 -72 118 -139 123 -26 2
-33 8 -41 38 -5 19 -10 53 -10 75 -1 123 -134 255 -335 330 -34 13 -90 38
-126 56 -82 43 -181 51 -245 20z m152 -273 c2 -18 5 -67 8 -108 4 -67 3 -69
-4 -20 -17 120 -22 175 -15 168 4 -4 9 -22 11 -40z m11 -280 c-2 -13 -4 -5 -4
17 -1 22 1 32 4 23 2 -10 2 -28 0 -40z m300 -95 c-3 -10 -5 -4 -5 12 0 17 2
24 5 18 2 -7 2 -21 0 -30z m-300 -235 c-3 -7 -5 -2 -5 12 0 14 2 19 5 13 2 -7
2 -19 0 -25z m10 -75 c-3 -10 -5 -4 -5 12 0 17 2 24 5 18 2 -7 2 -21 0 -30z"/>
</g>
</svg>
